{"accessors":[{"bufferView":0,"componentType":5126,"count":16,"max":[46.41128921508789,86.5,-0.7087512016296387],"min":[0.3588871359825134,0.0,-33.066951751708984],"type":"VEC3"},{"bufferView":1,"componentType":5125,"count":84,"max":[15],"min":[0],"type":"SCALAR"}],"asset":{"generator":"csv2massing 0.1.0","version":"2.0"},"bufferViews":[{"buffer":0,"byteLength":192,"byteOffset":0,"target":34962},{"buffer":0,"byteLength":336,"byteOffset":192,"target":34963}],"buffers":[{"byteLength":528,"uri":"data:application/octet-stream;base64,"}],"extras":{"axes":"glTF +X = east, +Y = up, +Z = south (negative north); metres relative to origin","base_height_m":0.0,"building_id":"surrey-2354","detailed":false,"geometry_sha256":"91df5a1a27ca5af3d28b7fac4fdbb4a53e677bbd4077b823ba5ceec44bcd6982","height_m":86.5,"note":"schematic single prism of the supplied total height; not a detailed architectural model","origin":{"crs":"EPSG:26910","easting_m":510632.0,"elevation_m":0.0,"northing_m":5448667.0},"physical_building_id":"surrey-2354","provenance_file":"provenance/surrey-2354.json","schematic":true,"test_only":false,"units":"metre","wgs84_anchor":{"crs":"EPSG:4326","latitude":49.190712645158264,"longitude":-122.8540820124752,"note":"origin inverse-projected; elevation 0 m is the extrusion base, not a surveyed vertical datum"}},"meshes":[{"name":"surrey-2354","primitives":[{"attributes":{"POSITION":0},"indices":1,"mode":4}]}],"nodes":[{"mesh":0,"name":"surrey-2354"}],"scene":0,"scenes":[{"nodes":[0]}]}