{"accessors":[{"bufferView":0,"componentType":5126,"count":44,"max":[26.69618797302246,107.5,-0.4481446146965027],"min":[0.4009862542152405,0.0,-35.78564453125],"type":"VEC3"},{"bufferView":1,"componentType":5125,"count":252,"max":[43],"min":[0],"type":"SCALAR"}],"asset":{"generator":"csv2massing 0.1.0","version":"2.0"},"bufferViews":[{"buffer":0,"byteLength":528,"byteOffset":0,"target":34962},{"buffer":0,"byteLength":1008,"byteOffset":528,"target":34963}],"buffers":[{"byteLength":1536,"uri":"data:application/octet-stream;base64,"}],"extras":{"axes":"glTF +X = east, +Y = up, +Z = south (negative north); metres relative to origin","base_height_m":0.0,"building_id":"surrey-132062","detailed":false,"geometry_sha256":"15a5426815a18c3b1dd6b0f174d7c9cf5696c33ba26df03e14ac24b4ee70115d","height_m":107.5,"note":"schematic single prism of the supplied total height; not a detailed architectural model","origin":{"crs":"EPSG:26910","easting_m":510679.0,"elevation_m":0.0,"northing_m":5448548.0},"physical_building_id":"surrey-132062","provenance_file":"provenance/surrey-132062.json","schematic":true,"test_only":false,"units":"metre","wgs84_anchor":{"crs":"EPSG:4326","latitude":49.189641388990985,"longitude":-122.85344012914516,"note":"origin inverse-projected; elevation 0 m is the extrusion base, not a surveyed vertical datum"}},"meshes":[{"name":"surrey-132062","primitives":[{"attributes":{"POSITION":0},"indices":1,"mode":4}]}],"nodes":[{"mesh":0,"name":"surrey-132062"}],"scene":0,"scenes":[{"nodes":[0]}]}